<svg width="15" height="15" viewBox="0 0 15 15" fill="none" xmlns="http://www.w3.org/2000/svg">
<path fill-rule="evenodd" clip-rule="evenodd" d="M12.459 5.87436L13.8333 4.5C14.0678 4.2655 14.1851 4.14825 14.2695 4.03605C14.8056 3.32383 14.8056 2.34284 14.2695 1.63063C14.1851 1.51842 14.0678 1.40117 13.8333 1.16667C13.5988 0.932167 13.4816 0.814916 13.3694 0.730466C12.6572 0.194418 11.6762 0.194418 10.9639 0.730466C10.8517 0.814913 10.7345 0.932158 10.5 1.16664L10.5 1.16667L9.10637 2.56029C9.90327 3.94053 11.06 5.08831 12.459 5.87436ZM7.65177 4.01488L2.1897 9.47696C1.76464 9.90202 1.55211 10.1145 1.41237 10.3756C1.27264 10.6367 1.21369 10.9315 1.0958 11.5209L0.647073 13.7646C0.580551 14.0972 0.54729 14.2635 0.641898 14.3581C0.736506 14.4527 0.902811 14.4194 1.23542 14.3529L3.47907 13.9042C4.06852 13.7863 4.36325 13.7274 4.62434 13.5876C4.88544 13.4479 5.09797 13.2354 5.52303 12.8103L11.0006 7.33273C9.65276 6.48197 8.51059 5.34755 7.65177 4.01488Z" fill="#222222"/>
</svg>
